<mxfile host="app.diagrams.net" modified="2024-09-20T20:36:44.004Z" agent="Mozilla/5.0 (Windows NT 10.0; Win64; x64) AppleWebKit/537.36 (KHTML, like Gecko) Chrome/126.0.0.0 Safari/537.36" etag="NobfnfK_B8A4PiuGtbH5" version="24.0.2" type="github">
  <diagram id="jrXY4hO8n29qiqvIHeQG" name="Page-1">
    <mxGraphModel dx="4140" dy="3066" grid="1" gridSize="10" guides="1" tooltips="1" connect="1" arrows="1" fold="1" page="0" pageScale="1" pageWidth="827" pageHeight="1169" math="0" shadow="0">
      <root>
        <mxCell id="0" />
        <mxCell id="1" parent="0" />
        <mxCell id="tn3cOJQLFZxdOXVoj0Xe-91" value="" style="rounded=0;whiteSpace=wrap;html=1;fillColor=#e1d5e7;strokeColor=#9673a6;" parent="1" vertex="1">
          <mxGeometry x="-1250" y="-810" width="280" height="980" as="geometry" />
        </mxCell>
        <mxCell id="tn3cOJQLFZxdOXVoj0Xe-81" value="" style="rounded=0;whiteSpace=wrap;html=1;fillColor=#fff2cc;strokeColor=#9673A6;" parent="1" vertex="1">
          <mxGeometry x="-970" y="-810" width="1980" height="980" as="geometry" />
        </mxCell>
        <mxCell id="tn3cOJQLFZxdOXVoj0Xe-5" value="" style="edgeStyle=orthogonalEdgeStyle;rounded=0;orthogonalLoop=1;jettySize=auto;html=1;" parent="1" source="tn3cOJQLFZxdOXVoj0Xe-1" target="tn3cOJQLFZxdOXVoj0Xe-4" edge="1">
          <mxGeometry relative="1" as="geometry" />
        </mxCell>
        <mxCell id="tn3cOJQLFZxdOXVoj0Xe-36" value="" style="edgeStyle=orthogonalEdgeStyle;rounded=0;orthogonalLoop=1;jettySize=auto;html=1;" parent="1" source="tn3cOJQLFZxdOXVoj0Xe-1" target="tn3cOJQLFZxdOXVoj0Xe-35" edge="1">
          <mxGeometry relative="1" as="geometry" />
        </mxCell>
        <mxCell id="tn3cOJQLFZxdOXVoj0Xe-1" value="&lt;font style=&quot;font-size: 36px;&quot;&gt;Identify Problem &amp;amp; Motivate&lt;/font&gt;" style="whiteSpace=wrap;html=1;aspect=fixed;fillColor=#dae8fc;strokeColor=#6c8ebf;" parent="1" vertex="1">
          <mxGeometry x="-940" y="-780" width="250" height="250" as="geometry" />
        </mxCell>
        <mxCell id="tn3cOJQLFZxdOXVoj0Xe-7" value="" style="edgeStyle=orthogonalEdgeStyle;rounded=0;orthogonalLoop=1;jettySize=auto;html=1;" parent="1" source="tn3cOJQLFZxdOXVoj0Xe-4" target="tn3cOJQLFZxdOXVoj0Xe-6" edge="1">
          <mxGeometry relative="1" as="geometry" />
        </mxCell>
        <mxCell id="tn3cOJQLFZxdOXVoj0Xe-62" value="" style="edgeStyle=orthogonalEdgeStyle;rounded=0;orthogonalLoop=1;jettySize=auto;html=1;" parent="1" source="tn3cOJQLFZxdOXVoj0Xe-4" target="tn3cOJQLFZxdOXVoj0Xe-37" edge="1">
          <mxGeometry relative="1" as="geometry" />
        </mxCell>
        <mxCell id="tn3cOJQLFZxdOXVoj0Xe-4" value="&lt;font style=&quot;font-size: 36px;&quot;&gt;Define Objectives of a Solution&lt;/font&gt;" style="whiteSpace=wrap;html=1;aspect=fixed;fillColor=#dae8fc;strokeColor=#6c8ebf;" parent="1" vertex="1">
          <mxGeometry x="-610" y="-780" width="250" height="250" as="geometry" />
        </mxCell>
        <mxCell id="tn3cOJQLFZxdOXVoj0Xe-9" value="" style="edgeStyle=orthogonalEdgeStyle;rounded=0;orthogonalLoop=1;jettySize=auto;html=1;" parent="1" source="tn3cOJQLFZxdOXVoj0Xe-6" target="tn3cOJQLFZxdOXVoj0Xe-8" edge="1">
          <mxGeometry relative="1" as="geometry" />
        </mxCell>
        <mxCell id="tn3cOJQLFZxdOXVoj0Xe-63" value="" style="edgeStyle=orthogonalEdgeStyle;rounded=0;orthogonalLoop=1;jettySize=auto;html=1;" parent="1" source="tn3cOJQLFZxdOXVoj0Xe-6" target="tn3cOJQLFZxdOXVoj0Xe-39" edge="1">
          <mxGeometry relative="1" as="geometry" />
        </mxCell>
        <mxCell id="tn3cOJQLFZxdOXVoj0Xe-6" value="&lt;font style=&quot;font-size: 36px;&quot;&gt;Design &amp;amp; Development&lt;/font&gt;" style="whiteSpace=wrap;html=1;aspect=fixed;fillColor=#dae8fc;strokeColor=#6c8ebf;" parent="1" vertex="1">
          <mxGeometry x="-280" y="-780" width="250" height="250" as="geometry" />
        </mxCell>
        <mxCell id="tn3cOJQLFZxdOXVoj0Xe-11" value="" style="edgeStyle=orthogonalEdgeStyle;rounded=0;orthogonalLoop=1;jettySize=auto;html=1;" parent="1" source="tn3cOJQLFZxdOXVoj0Xe-8" target="tn3cOJQLFZxdOXVoj0Xe-10" edge="1">
          <mxGeometry relative="1" as="geometry" />
        </mxCell>
        <mxCell id="tn3cOJQLFZxdOXVoj0Xe-64" value="" style="edgeStyle=orthogonalEdgeStyle;rounded=0;orthogonalLoop=1;jettySize=auto;html=1;" parent="1" source="tn3cOJQLFZxdOXVoj0Xe-8" target="tn3cOJQLFZxdOXVoj0Xe-41" edge="1">
          <mxGeometry relative="1" as="geometry" />
        </mxCell>
        <mxCell id="tn3cOJQLFZxdOXVoj0Xe-8" value="&lt;font style=&quot;font-size: 36px;&quot;&gt;Demonstration&lt;/font&gt;" style="whiteSpace=wrap;html=1;aspect=fixed;fillColor=#dae8fc;strokeColor=#6c8ebf;" parent="1" vertex="1">
          <mxGeometry x="50" y="-780" width="250" height="250" as="geometry" />
        </mxCell>
        <mxCell id="tn3cOJQLFZxdOXVoj0Xe-13" value="" style="edgeStyle=orthogonalEdgeStyle;rounded=0;orthogonalLoop=1;jettySize=auto;html=1;" parent="1" source="tn3cOJQLFZxdOXVoj0Xe-10" target="tn3cOJQLFZxdOXVoj0Xe-12" edge="1">
          <mxGeometry relative="1" as="geometry" />
        </mxCell>
        <mxCell id="tn3cOJQLFZxdOXVoj0Xe-65" value="" style="edgeStyle=orthogonalEdgeStyle;rounded=0;orthogonalLoop=1;jettySize=auto;html=1;" parent="1" source="tn3cOJQLFZxdOXVoj0Xe-10" target="tn3cOJQLFZxdOXVoj0Xe-43" edge="1">
          <mxGeometry relative="1" as="geometry" />
        </mxCell>
        <mxCell id="tn3cOJQLFZxdOXVoj0Xe-10" value="&lt;font style=&quot;font-size: 36px;&quot;&gt;Evaluation&lt;/font&gt;" style="whiteSpace=wrap;html=1;aspect=fixed;fillColor=#dae8fc;strokeColor=#6c8ebf;" parent="1" vertex="1">
          <mxGeometry x="380" y="-780" width="250" height="250" as="geometry" />
        </mxCell>
        <mxCell id="tn3cOJQLFZxdOXVoj0Xe-66" value="" style="edgeStyle=orthogonalEdgeStyle;rounded=0;orthogonalLoop=1;jettySize=auto;html=1;" parent="1" source="tn3cOJQLFZxdOXVoj0Xe-12" target="tn3cOJQLFZxdOXVoj0Xe-45" edge="1">
          <mxGeometry relative="1" as="geometry" />
        </mxCell>
        <mxCell id="tn3cOJQLFZxdOXVoj0Xe-12" value="&lt;font style=&quot;font-size: 34px;&quot;&gt;Communication&lt;/font&gt;" style="whiteSpace=wrap;html=1;aspect=fixed;strokeWidth=1;perimeterSpacing=0;fontSize=32;fillColor=#dae8fc;strokeColor=#6c8ebf;" parent="1" vertex="1">
          <mxGeometry x="710" y="-780" width="250" height="250" as="geometry" />
        </mxCell>
        <mxCell id="tn3cOJQLFZxdOXVoj0Xe-14" value="&lt;font style=&quot;font-size: 36px;&quot;&gt;Research Question&lt;/font&gt;" style="ellipse;whiteSpace=wrap;html=1;fontSize=36;fillColor=#d5e8d4;strokeColor=#82b366;" parent="1" vertex="1">
          <mxGeometry x="-940" y="-103" width="250" height="253" as="geometry" />
        </mxCell>
        <mxCell id="tn3cOJQLFZxdOXVoj0Xe-24" value="&lt;font style=&quot;font-size: 36px;&quot;&gt;Specific&lt;/font&gt;&lt;div&gt;&lt;font style=&quot;font-size: 36px;&quot;&gt;Goals&lt;/font&gt;&lt;/div&gt;" style="ellipse;whiteSpace=wrap;html=1;fontSize=36;fillColor=#d5e8d4;strokeColor=#82b366;" parent="1" vertex="1">
          <mxGeometry x="-610" y="-103" width="250" height="253" as="geometry" />
        </mxCell>
        <mxCell id="tn3cOJQLFZxdOXVoj0Xe-26" value="&lt;font style=&quot;font-size: 36px;&quot;&gt;Artifact&lt;/font&gt;" style="ellipse;whiteSpace=wrap;html=1;fontSize=36;fillColor=#d5e8d4;strokeColor=#82b366;" parent="1" vertex="1">
          <mxGeometry x="-280" y="-103" width="250" height="253" as="geometry" />
        </mxCell>
        <mxCell id="tn3cOJQLFZxdOXVoj0Xe-28" value="&lt;font style=&quot;font-size: 36px;&quot;&gt;Final&lt;/font&gt;&lt;div&gt;&lt;font style=&quot;font-size: 36px;&quot;&gt;Results&lt;/font&gt;&lt;/div&gt;" style="ellipse;whiteSpace=wrap;html=1;fontSize=36;fillColor=#d5e8d4;strokeColor=#82b366;" parent="1" vertex="1">
          <mxGeometry x="380" y="-103" width="250" height="253" as="geometry" />
        </mxCell>
        <mxCell id="tn3cOJQLFZxdOXVoj0Xe-67" value="" style="edgeStyle=orthogonalEdgeStyle;rounded=0;orthogonalLoop=1;jettySize=auto;html=1;" parent="1" source="tn3cOJQLFZxdOXVoj0Xe-35" target="tn3cOJQLFZxdOXVoj0Xe-14" edge="1">
          <mxGeometry relative="1" as="geometry" />
        </mxCell>
        <mxCell id="tn3cOJQLFZxdOXVoj0Xe-35" value="&lt;font style=&quot;font-size: 36px;&quot;&gt;Survey&lt;/font&gt;" style="rhombus;whiteSpace=wrap;html=1;fillColor=#f8cecc;strokeColor=#b85450;" parent="1" vertex="1">
          <mxGeometry x="-940" y="-433" width="250" height="250" as="geometry" />
        </mxCell>
        <mxCell id="tn3cOJQLFZxdOXVoj0Xe-68" value="" style="edgeStyle=orthogonalEdgeStyle;rounded=0;orthogonalLoop=1;jettySize=auto;html=1;" parent="1" source="tn3cOJQLFZxdOXVoj0Xe-37" target="tn3cOJQLFZxdOXVoj0Xe-24" edge="1">
          <mxGeometry relative="1" as="geometry" />
        </mxCell>
        <mxCell id="tn3cOJQLFZxdOXVoj0Xe-37" value="&lt;font style=&quot;font-size: 32px;&quot;&gt;Survey,&lt;/font&gt;&lt;div style=&quot;font-size: 32px;&quot;&gt;&lt;font style=&quot;font-size: 32px;&quot;&gt;Case Study,&lt;/font&gt;&lt;/div&gt;&lt;div style=&quot;font-size: 32px;&quot;&gt;&lt;font style=&quot;font-size: 32px;&quot;&gt;Interviews&lt;/font&gt;&lt;/div&gt;" style="rhombus;whiteSpace=wrap;html=1;fillColor=#f8cecc;strokeColor=#b85450;" parent="1" vertex="1">
          <mxGeometry x="-610" y="-433" width="250" height="250" as="geometry" />
        </mxCell>
        <mxCell id="tn3cOJQLFZxdOXVoj0Xe-69" value="" style="edgeStyle=orthogonalEdgeStyle;rounded=0;orthogonalLoop=1;jettySize=auto;html=1;" parent="1" source="tn3cOJQLFZxdOXVoj0Xe-39" target="tn3cOJQLFZxdOXVoj0Xe-26" edge="1">
          <mxGeometry relative="1" as="geometry" />
        </mxCell>
        <mxCell id="tn3cOJQLFZxdOXVoj0Xe-39" value="&lt;font style=&quot;font-size: 36px;&quot;&gt;Case Study&lt;/font&gt;" style="rhombus;whiteSpace=wrap;html=1;fillColor=#f8cecc;strokeColor=#b85450;" parent="1" vertex="1">
          <mxGeometry x="-280" y="-433" width="250" height="250" as="geometry" />
        </mxCell>
        <mxCell id="tn3cOJQLFZxdOXVoj0Xe-73" value="" style="edgeStyle=orthogonalEdgeStyle;rounded=0;orthogonalLoop=1;jettySize=auto;html=1;entryX=0;entryY=0.5;entryDx=0;entryDy=0;" parent="1" source="tn3cOJQLFZxdOXVoj0Xe-41" target="tn3cOJQLFZxdOXVoj0Xe-28" edge="1">
          <mxGeometry relative="1" as="geometry">
            <Array as="points">
              <mxPoint x="175" y="24" />
            </Array>
          </mxGeometry>
        </mxCell>
        <mxCell id="tn3cOJQLFZxdOXVoj0Xe-41" value="&lt;font style=&quot;font-size: 36px;&quot;&gt;Case Study&lt;/font&gt;" style="rhombus;whiteSpace=wrap;html=1;fillColor=#f8cecc;strokeColor=#b85450;" parent="1" vertex="1">
          <mxGeometry x="50" y="-433" width="250" height="250" as="geometry" />
        </mxCell>
        <mxCell id="tn3cOJQLFZxdOXVoj0Xe-74" style="edgeStyle=orthogonalEdgeStyle;rounded=0;orthogonalLoop=1;jettySize=auto;html=1;exitX=0.5;exitY=1;exitDx=0;exitDy=0;entryX=0.5;entryY=0;entryDx=0;entryDy=0;" parent="1" source="tn3cOJQLFZxdOXVoj0Xe-43" target="tn3cOJQLFZxdOXVoj0Xe-28" edge="1">
          <mxGeometry relative="1" as="geometry" />
        </mxCell>
        <mxCell id="tn3cOJQLFZxdOXVoj0Xe-43" value="&lt;font style=&quot;font-size: 36px;&quot;&gt;SMART&lt;/font&gt;" style="rhombus;whiteSpace=wrap;html=1;fillColor=#f8cecc;strokeColor=#b85450;" parent="1" vertex="1">
          <mxGeometry x="380" y="-433" width="250" height="250" as="geometry" />
        </mxCell>
        <mxCell id="tn3cOJQLFZxdOXVoj0Xe-75" style="edgeStyle=orthogonalEdgeStyle;rounded=0;orthogonalLoop=1;jettySize=auto;html=1;entryX=1;entryY=0.5;entryDx=0;entryDy=0;" parent="1" source="tn3cOJQLFZxdOXVoj0Xe-45" target="tn3cOJQLFZxdOXVoj0Xe-28" edge="1">
          <mxGeometry relative="1" as="geometry">
            <Array as="points">
              <mxPoint x="835" y="24" />
            </Array>
          </mxGeometry>
        </mxCell>
        <mxCell id="tn3cOJQLFZxdOXVoj0Xe-45" value="&lt;div&gt;&lt;font style=&quot;font-size: 36px;&quot;&gt;Public&lt;/font&gt;&lt;/div&gt;&lt;font style=&quot;font-size: 36px;&quot;&gt;Defense&lt;/font&gt;" style="rhombus;whiteSpace=wrap;html=1;fillColor=#f8cecc;strokeColor=#b85450;" parent="1" vertex="1">
          <mxGeometry x="710" y="-433" width="250" height="250" as="geometry" />
        </mxCell>
        <mxCell id="tn3cOJQLFZxdOXVoj0Xe-89" value="&lt;font style=&quot;font-size: 45px;&quot;&gt;Phases:&lt;/font&gt;" style="text;html=1;align=center;verticalAlign=middle;whiteSpace=wrap;rounded=0;" parent="1" vertex="1">
          <mxGeometry x="-1220" y="-730" width="220" height="170" as="geometry" />
        </mxCell>
        <mxCell id="tn3cOJQLFZxdOXVoj0Xe-92" value="&lt;font style=&quot;font-size: 45px;&quot;&gt;Methods:&lt;/font&gt;" style="text;html=1;align=center;verticalAlign=middle;whiteSpace=wrap;rounded=0;" parent="1" vertex="1">
          <mxGeometry x="-1220" y="-393" width="220" height="170" as="geometry" />
        </mxCell>
        <mxCell id="tn3cOJQLFZxdOXVoj0Xe-93" value="&lt;font style=&quot;font-size: 45px;&quot;&gt;Results:&lt;/font&gt;" style="text;html=1;align=center;verticalAlign=middle;whiteSpace=wrap;rounded=0;" parent="1" vertex="1">
          <mxGeometry x="-1220" y="-61.5" width="220" height="170" as="geometry" />
        </mxCell>
        <mxCell id="tn3cOJQLFZxdOXVoj0Xe-143" value="" style="line;strokeWidth=1;html=1;rotation=-90;strokeColor=#9673A6;" parent="1" vertex="1">
          <mxGeometry x="-1143.12" y="-325" width="976.25" height="10" as="geometry" />
        </mxCell>
        <mxCell id="tn3cOJQLFZxdOXVoj0Xe-144" value="" style="line;strokeWidth=1;html=1;rotation=-90;strokeColor=#9673A6;" parent="1" vertex="1">
          <mxGeometry x="-809.9999999999999" y="-325" width="976.25" height="10" as="geometry" />
        </mxCell>
        <mxCell id="tn3cOJQLFZxdOXVoj0Xe-145" value="" style="line;strokeWidth=1;html=1;rotation=-90;strokeColor=#9673A6;" parent="1" vertex="1">
          <mxGeometry x="-479.9999999999999" y="-325" width="976.25" height="10" as="geometry" />
        </mxCell>
        <mxCell id="tn3cOJQLFZxdOXVoj0Xe-146" value="" style="line;strokeWidth=1;html=1;rotation=-90;strokeColor=#9673A6;" parent="1" vertex="1">
          <mxGeometry x="-149.9999999999999" y="-325" width="976.25" height="10" as="geometry" />
        </mxCell>
        <mxCell id="tn3cOJQLFZxdOXVoj0Xe-147" value="" style="line;strokeWidth=1;html=1;rotation=-90;strokeColor=#9673A6;" parent="1" vertex="1">
          <mxGeometry x="180" y="-325" width="976.25" height="10" as="geometry" />
        </mxCell>
        <mxCell id="tn3cOJQLFZxdOXVoj0Xe-148" value="" style="line;strokeWidth=1;html=1;rotation=0;strokeColor=#9673A6;" parent="1" vertex="1">
          <mxGeometry x="-1250" y="-490" width="2260" height="10" as="geometry" />
        </mxCell>
        <mxCell id="tn3cOJQLFZxdOXVoj0Xe-149" value="" style="line;strokeWidth=1;html=1;rotation=0;strokeColor=#9673A6;" parent="1" vertex="1">
          <mxGeometry x="-1240" y="-150" width="2260" height="10" as="geometry" />
        </mxCell>
      </root>
    </mxGraphModel>
  </diagram>
</mxfile>
